<svg width="68" height="68" viewBox="0 0 68 68" fill="none" xmlns="http://www.w3.org/2000/svg">
<path d="M43.3708 9.74742C44.9632 5.62608 42.9017 0.889774 38.5226 0.302115C33.7222 -0.342092 28.8081 0.0426429 24.115 1.46867C16.8512 3.67587 10.535 8.25068 6.17283 14.4642C1.8107 20.6777 -0.346386 28.1724 0.0452762 35.7541C0.436938 43.3358 3.35481 50.5683 8.33398 56.2992C13.3131 62.0302 20.0671 65.9298 27.5198 67.3767C34.9724 68.8237 42.6949 67.7348 49.4569 64.2834C56.2188 60.8321 61.6311 55.2169 64.8314 48.3326C66.8991 43.8848 67.9665 39.0725 67.9993 34.2292C68.0291 29.811 63.6272 27.108 59.3238 28.1091L58.6902 28.2565C54.3868 29.2576 51.9006 33.6992 50.8823 37.9985C50.6137 39.133 50.2298 40.2439 49.7325 41.3136C48.0995 44.8265 45.3377 47.6917 41.8873 49.4529C38.4368 51.214 34.4962 51.7697 30.6933 51.0313C26.8904 50.293 23.444 48.3031 20.9032 45.3788C18.3625 42.4544 16.8736 38.7638 16.6737 34.8951C16.4739 31.0263 17.5746 27.2019 19.8005 24.0313C22.0264 20.8607 25.2494 18.5263 28.9559 17.4C30.0846 17.0571 31.2383 16.8322 32.3991 16.7246C36.7985 16.317 41.5439 14.4756 43.1363 10.3543L43.3708 9.74742Z" fill="#E0E8FF" fill-opacity="0.75"/>
</svg>
