<svg width="36" height="36" viewBox="0 0 36 36" fill="none" xmlns="http://www.w3.org/2000/svg">
<path d="M18 26.475C18.2 26.475 18.3812 26.4437 18.5437 26.3812C18.7062 26.3187 18.8625 26.225 19.0125 26.1C19.8125 25.375 20.575 24.6625 21.3 23.9625C22.025 23.2625 22.6562 22.575 23.1937 21.9C23.7312 21.225 24.1625 20.5687 24.4875 19.9312C24.8125 19.2937 24.975 18.675 24.975 18.075C24.975 16.975 24.6 16.0625 23.85 15.3375C23.1 14.6125 22.2 14.25 21.15 14.25C20.5 14.25 19.9062 14.3812 19.3687 14.6437C18.8312 14.9062 18.375 15.25 18 15.675C17.625 15.25 17.1562 14.9062 16.5937 14.6437C16.0312 14.3812 15.45 14.25 14.85 14.25C13.8 14.25 12.9 14.6125 12.15 15.3375C11.4 16.0625 11.025 16.975 11.025 18.075C11.025 18.675 11.1875 19.2937 11.5125 19.9312C11.8375 20.5687 12.2687 21.225 12.8062 21.9C13.3437 22.575 13.975 23.2625 14.7 23.9625C15.425 24.6625 16.1875 25.375 16.9875 26.1C17.1375 26.225 17.2937 26.3187 17.4562 26.3812C17.6187 26.4437 17.8 26.475 18 26.475ZM8.99998 31.5C8.17498 31.5 7.46873 31.2062 6.88123 30.6187C6.29373 30.0312 5.99998 29.325 5.99998 28.5V17.4375L4.49998 18.6C4.14998 18.85 3.77498 18.95 3.37498 18.9C2.97498 18.85 2.64998 18.65 2.39998 18.3C2.14998 17.95 2.05623 17.575 2.11873 17.175C2.18123 16.775 2.37498 16.45 2.69998 16.2L16.1625 5.88748C16.4375 5.68748 16.7312 5.53748 17.0437 5.43748C17.3562 5.33748 17.675 5.28748 18 5.28748C18.325 5.28748 18.6437 5.33748 18.9562 5.43748C19.2687 5.53748 19.5625 5.68748 19.8375 5.88748L33.3375 16.2C33.6625 16.45 33.85 16.775 33.9 17.175C33.95 17.575 33.85 17.95 33.6 18.3C33.35 18.625 33.025 18.8125 32.625 18.8625C32.225 18.9125 31.8625 18.8125 31.5375 18.5625L30 17.4375V28.5C30 29.325 29.7062 30.0312 29.1187 30.6187C28.5312 31.2062 27.825 31.5 27 31.5H8.99998Z" fill="#D8D2E7"/>
</svg>
